<?xml version="1.0" encoding="UTF-8"?>
<svg id="_圖層_1" data-name="圖層 1" xmlns="http://www.w3.org/2000/svg" viewBox="0 0 497 107">
  <defs>
    <style>
      .cls-1 {
        fill: #4285f4;
      }

      .cls-1, .cls-2, .cls-3, .cls-4 {
        stroke-width: 0px;
      }

      .cls-2 {
        fill: #fbbc06;
      }

      .cls-3 {
        fill: #e94336;
      }

      .cls-4 {
        fill: #34a852;
      }
    </style>
  </defs>
  <g>
    <path class="cls-1" d="M48.64,99.95c-24.32,0-43.37-19.49-43.37-44.37S24.32,11.21,48.64,11.21c11.66,0,22.68,4.49,31.01,12.64l1.61,1.57-13.18,13.48-1.61-1.57c-4.79-4.69-11.13-7.27-17.83-7.27-13.74,0-24.51,11.21-24.51,25.51s10.77,25.51,24.51,25.51c7.18,0,14.07-3.05,18.9-8.37l1.51-1.67,13.96,12.67-1.78,1.97-.3.33c-.4.42-.8.83-1.21,1.23-8.23,8.07-19.56,12.7-31.07,12.7Z"/>
    <path class="cls-1" d="M48.64,13.47c11.07,0,21.53,4.26,29.44,12l-10.04,10.27c-5.22-5.1-12.11-7.91-19.4-7.91-15.31,0-26.76,12.45-26.76,27.76s11.45,27.76,26.76,27.76c7.81,0,15.31-3.32,20.56-9.11l10.63,9.65c-.09.09-.17.19-.26.28-.1.1-.19.21-.29.31-.37.4-.76.79-1.15,1.17-7.84,7.69-18.46,12.06-29.5,12.06-23.22,0-41.12-18.89-41.12-42.12S25.42,13.47,48.64,13.47M48.64,8.97c-12.4,0-23.94,4.87-32.5,13.72C7.68,31.43,3.03,43.11,3.03,55.58s4.66,24.15,13.12,32.9c8.56,8.85,20.1,13.72,32.5,13.72s24-4.86,32.65-13.34c.43-.42.86-.86,1.27-1.29l.32-.34.28-.31,3.03-3.33-3.33-3.03-10.63-9.65-3.33-3.02-3.02,3.33c-4.4,4.85-10.68,7.63-17.23,7.63-12.48,0-22.26-10.22-22.26-23.26s9.78-23.26,22.26-23.26c6.11,0,11.89,2.35,16.26,6.63l3.22,3.15,3.15-3.22,10.04-10.27,3.15-3.22-3.22-3.15c-8.76-8.56-20.33-13.28-32.59-13.28h0Z"/>
  </g>
  <g>
    <path class="cls-3" d="M109.46,48.74h.23c1.08-2.32,3-4.43,5.74-6.32,2.74-1.89,6.28-2.84,10.61-2.84,3.71,0,6.86.62,9.45,1.86,2.59,1.24,4.7,2.86,6.32,4.87,1.62,2.01,2.78,4.33,3.48,6.96.7,2.63,1.04,5.38,1.04,8.24v35.15h-13.92v-28.19c0-1.55-.08-3.27-.23-5.16-.16-1.89-.56-3.67-1.22-5.34-.66-1.66-1.68-3.05-3.07-4.18-1.39-1.12-3.29-1.68-5.68-1.68s-4.27.39-5.86,1.16c-1.59.77-2.9,1.82-3.94,3.13-1.04,1.32-1.8,2.82-2.26,4.52-.46,1.7-.7,3.48-.7,5.34v30.39h-13.92V8.96h13.92v39.79Z"/>
    <path class="cls-2" d="M172.1,73.68c.46,4.18,2.09,7.42,4.87,9.74s6.15,3.48,10.09,3.48c3.48,0,6.4-.71,8.76-2.15,2.36-1.43,4.43-3.23,6.21-5.39l9.98,7.54c-3.25,4.02-6.88,6.88-10.9,8.58-4.02,1.7-8.24,2.55-12.64,2.55-4.18,0-8.12-.7-11.83-2.09-3.71-1.39-6.92-3.36-9.63-5.92-2.71-2.55-4.85-5.63-6.44-9.22-1.59-3.6-2.38-7.6-2.38-12.01s.79-8.41,2.38-12.01c1.58-3.6,3.73-6.67,6.44-9.22,2.71-2.55,5.92-4.52,9.63-5.92,3.71-1.39,7.66-2.09,11.83-2.09,3.87,0,7.4.68,10.61,2.03,3.21,1.35,5.95,3.31,8.24,5.86,2.28,2.55,4.06,5.7,5.34,9.45,1.28,3.75,1.91,8.06,1.91,12.93v3.83h-42.46ZM200.64,63.24c-.08-4.1-1.35-7.33-3.83-9.69-2.48-2.36-5.92-3.54-10.32-3.54-4.18,0-7.48,1.2-9.92,3.6-2.44,2.4-3.93,5.61-4.47,9.63h28.54Z"/>
    <path class="cls-1" d="M226.39,40.97h13.92v8.82h.23c1.55-3.25,3.75-5.76,6.61-7.54,2.86-1.78,6.15-2.67,9.86-2.67.85,0,1.68.08,2.49.23.81.16,1.64.35,2.49.58v13.46c-1.16-.31-2.3-.56-3.42-.75-1.12-.19-2.22-.29-3.31-.29-3.25,0-5.86.6-7.83,1.8-1.97,1.2-3.48,2.57-4.52,4.12-1.04,1.55-1.74,3.09-2.09,4.64-.35,1.55-.52,2.71-.52,3.48v29.81h-13.92v-55.68Z"/>
    <path class="cls-4" d="M306.31,57.68c-1.62-1.7-3.32-3.05-5.1-4.06-1.78-1-3.6-1.51-5.45-1.51-2.55,0-4.83.46-6.84,1.39-2.01.93-3.73,2.17-5.16,3.71-1.43,1.55-2.51,3.33-3.25,5.34-.74,2.01-1.1,4.1-1.1,6.26s.37,4.25,1.1,6.26c.73,2.01,1.82,3.79,3.25,5.34,1.43,1.55,3.15,2.78,5.16,3.71,2.01.93,4.29,1.39,6.84,1.39,2.16,0,4.18-.44,6.03-1.33,1.86-.89,3.44-2.18,4.76-3.89l9.28,9.98c-1.39,1.39-3,2.59-4.81,3.6-1.82,1.01-3.65,1.82-5.51,2.44-1.86.62-3.64,1.06-5.34,1.33-1.7.27-3.17.41-4.41.41-4.18,0-8.12-.7-11.83-2.09-3.71-1.39-6.92-3.36-9.63-5.92-2.71-2.55-4.85-5.63-6.44-9.22-1.59-3.6-2.38-7.6-2.38-12.01s.79-8.41,2.38-12.01c1.58-3.6,3.73-6.67,6.44-9.22,2.71-2.55,5.92-4.52,9.63-5.92,3.71-1.39,7.66-2.09,11.83-2.09,3.56,0,7.13.68,10.73,2.03,3.6,1.35,6.75,3.5,9.45,6.44l-9.63,9.63Z"/>
    <path class="cls-3" d="M336.94,48.74h.23c1.08-2.32,3-4.43,5.74-6.32,2.74-1.89,6.28-2.84,10.61-2.84,3.71,0,6.86.62,9.45,1.86,2.59,1.24,4.7,2.86,6.32,4.87,1.62,2.01,2.78,4.33,3.48,6.96.7,2.63,1.04,5.38,1.04,8.24v35.15h-13.92v-28.19c0-1.55-.08-3.27-.23-5.16-.16-1.89-.56-3.67-1.22-5.34-.66-1.66-1.68-3.05-3.07-4.18-1.39-1.12-3.29-1.68-5.68-1.68s-4.27.39-5.86,1.16c-1.59.77-2.9,1.82-3.94,3.13-1.04,1.32-1.8,2.82-2.26,4.52-.46,1.7-.7,3.48-.7,5.34v30.39h-13.92V8.96h13.92v39.79Z"/>
    <path class="cls-2" d="M399.58,73.68c.46,4.18,2.09,7.42,4.87,9.74,2.78,2.32,6.15,3.48,10.09,3.48,3.48,0,6.4-.71,8.76-2.15,2.36-1.43,4.43-3.23,6.21-5.39l9.98,7.54c-3.25,4.02-6.88,6.88-10.9,8.58-4.02,1.7-8.24,2.55-12.64,2.55-4.18,0-8.12-.7-11.83-2.09-3.71-1.39-6.92-3.36-9.63-5.92-2.71-2.55-4.85-5.63-6.44-9.22-1.59-3.6-2.38-7.6-2.38-12.01s.79-8.41,2.38-12.01c1.58-3.6,3.73-6.67,6.44-9.22,2.71-2.55,5.92-4.52,9.63-5.92,3.71-1.39,7.66-2.09,11.83-2.09,3.87,0,7.4.68,10.61,2.03,3.21,1.35,5.95,3.31,8.24,5.86,2.28,2.55,4.06,5.7,5.34,9.45,1.28,3.75,1.91,8.06,1.91,12.93v3.83h-42.46ZM428.11,63.24c-.08-4.1-1.35-7.33-3.83-9.69-2.48-2.36-5.92-3.54-10.32-3.54-4.18,0-7.48,1.2-9.92,3.6-2.44,2.4-3.93,5.61-4.47,9.63h28.54Z"/>
    <path class="cls-4" d="M453.86,40.97h13.92v8.82h.23c1.55-3.25,3.75-5.76,6.61-7.54,2.86-1.78,6.15-2.67,9.86-2.67.85,0,1.68.08,2.49.23.81.16,1.64.35,2.49.58v13.46c-1.16-.31-2.3-.56-3.42-.75-1.12-.19-2.22-.29-3.31-.29-3.25,0-5.86.6-7.83,1.8-1.97,1.2-3.48,2.57-4.52,4.12-1.04,1.55-1.74,3.09-2.09,4.64-.35,1.55-.52,2.71-.52,3.48v29.81h-13.92v-55.68Z"/>
  </g>
  <g>
    <path class="cls-2" d="M64.26,45.22l-20.72,20.72c5.72,5.72,15,5.72,20.72,0s5.72-15,0-20.72Z"/>
    <path class="cls-3" d="M43.54,45.22c-5.72,5.72-5.72,15,0,20.72l20.72-20.72c-5.72-5.72-15-5.72-20.72,0Z"/>
  </g>
</svg>